<?xml version="1.0" encoding="UTF-8" standalone="no"?>
<!DOCTYPE svg PUBLIC "-//W3C//DTD SVG 1.1//EN" "http://www.w3.org/Graphics/SVG/1.1/DTD/svg11.dtd">
<svg width="100%" height="100%" viewBox="0 0 24 24" version="1.1" xmlns="http://www.w3.org/2000/svg" xmlns:xlink="http://www.w3.org/1999/xlink" xml:space="preserve" xmlns:serif="http://www.serif.com/" style="fill-rule:evenodd;clip-rule:evenodd;stroke-linejoin:round;stroke-miterlimit:2;">
    <g id="landmarks">
        <g>
            <g>
                <g transform="matrix(1,0,0,1,0.75,0.75)">
                    <circle cx="6.75" cy="4.25" r="0.75" style="fill:white;"/>
                </g>
                <g transform="matrix(1,0,0,1,-1.75,2.25)">
                    <circle cx="6.75" cy="4.25" r="0.75" style="fill:white;"/>
                </g>
                <g transform="matrix(1,0,0,1,-1.75,8.25)">
                    <circle cx="6.75" cy="4.25" r="0.75" style="fill:white;"/>
                </g>
                <g transform="matrix(1,0,0,1,2.5,13.75)">
                    <circle cx="6.75" cy="4.25" r="0.75" style="fill:white;"/>
                </g>
                <g transform="matrix(1,0,0,1,8.25,13.5)">
                    <circle cx="6.75" cy="4.25" r="0.75" style="fill:white;"/>
                </g>
                <g transform="matrix(1,0,0,1,12.25,8.25)">
                    <circle cx="6.75" cy="4.25" r="0.75" style="fill:white;"/>
                </g>
                <g transform="matrix(1,0,0,1,12.25,2.75)">
                    <circle cx="6.75" cy="4.25" r="0.75" style="fill:white;"/>
                </g>
                <g transform="matrix(1,0,0,1,8,2.25)">
                    <circle cx="6.75" cy="4.25" r="0.75" style="fill:white;"/>
                </g>
                <g transform="matrix(1,0,0,1,3.25,2.25)">
                    <circle cx="6.75" cy="4.25" r="0.75" style="fill:white;"/>
                </g>
                <g transform="matrix(1,0,0,1,-0.75,-0.75)">
                    <circle cx="4.25" cy="10.25" r="0.75" style="fill:white;"/>
                </g>
                <g transform="matrix(1,0,0,1,-0.5,-0.5)">
                    <circle cx="7.5" cy="16.25" r="0.75" style="fill:white;"/>
                </g>
                <g transform="matrix(1,0,0,1,-0.75,-0.75)">
                    <circle cx="12.75" cy="20.25" r="0.75" style="fill:white;"/>
                </g>
                <g transform="matrix(1,0,0,1,-0.75,-0.75)">
                    <circle cx="17.75" cy="16.25" r="0.75" style="fill:white;"/>
                </g>
                <g transform="matrix(1,0,0,1,-1,-0.5)">
                    <circle cx="21.25" cy="10.25" r="0.75" style="fill:white;"/>
                </g>
                <g transform="matrix(1,0,0,1,-0.75,-0.75)">
                    <circle cx="17.75" cy="5.75" r="0.75" style="fill:white;"/>
                </g>
                <g transform="matrix(1,0,0,1,-0.75,-1)">
                    <circle cx="12.75" cy="9.75" r="0.75" style="fill:white;"/>
                </g>
            </g>
        </g>
    </g>
</svg>
