<?xml version="1.0" encoding="UTF-8" standalone="no"?>
<!DOCTYPE svg PUBLIC "-//W3C//DTD SVG 1.1//EN" "http://www.w3.org/Graphics/SVG/1.1/DTD/svg11.dtd">
<svg width="100%" height="100%" viewBox="0 0 800 800" version="1.1" xmlns="http://www.w3.org/2000/svg" xmlns:xlink="http://www.w3.org/1999/xlink" xml:space="preserve" xmlns:serif="http://www.serif.com/" style="fill-rule:evenodd;clip-rule:evenodd;stroke-linejoin:round;stroke-miterlimit:2;">
    <path d="M559.17,326.578C549.307,336.243 549.147,352.07 558.81,361.93C568.477,371.793 584.303,371.953 594.163,362.29L559.17,326.578ZM650.83,306.755C660.693,297.091 660.853,281.263 651.19,271.402C641.523,261.541 625.697,261.381 615.837,271.045L650.83,306.755ZM615.83,306.75C625.687,316.417 641.517,316.262 651.183,306.404C660.85,296.545 660.697,280.717 650.837,271.05L615.83,306.75ZM594.17,215.483C584.313,205.816 568.483,205.971 558.817,215.83C549.15,225.688 549.303,241.516 559.163,251.183L594.17,215.483ZM632.45,313.884C646.25,314.372 657.83,303.581 658.317,289.782C658.803,275.984 648.013,264.403 634.217,263.916L632.45,313.884ZM166.667,486.1C152.86,486.1 141.667,497.293 141.667,511.1C141.667,524.907 152.86,536.1 166.667,536.1L166.667,486.1ZM594.163,437.71C584.303,428.047 568.477,428.207 558.81,438.07C549.147,447.93 549.307,463.757 559.17,473.423L594.163,437.71ZM615.837,528.957C625.697,538.62 641.523,538.46 651.19,528.597C660.853,518.737 660.693,502.91 650.83,493.243L615.837,528.957ZM650.837,528.95C660.697,519.283 660.85,503.453 651.183,493.597C641.517,483.737 625.687,483.583 615.83,493.25L650.837,528.95ZM559.163,548.817C549.303,558.483 549.15,574.313 558.817,584.17C568.483,594.03 584.313,594.183 594.17,584.517L559.163,548.817ZM634.217,536.083C648.013,535.597 658.803,524.017 658.317,510.217C657.83,496.42 646.25,485.63 632.45,486.117L634.217,536.083ZM166.667,263.9C152.86,263.9 141.667,275.093 141.667,288.9C141.667,302.707 152.86,313.9 166.667,313.9L166.667,263.9ZM594.163,362.29L650.83,306.755L615.837,271.045L559.17,326.578L594.163,362.29ZM650.837,271.05L594.17,215.483L559.163,251.183L615.83,306.75L650.837,271.05ZM634.217,263.916C533.62,260.364 465.123,272.635 415.81,294.984C365.723,317.682 337.703,349.757 316.562,380.677C307.227,394.333 296.52,412.097 289.086,423.34C280.527,436.287 272.319,447.133 262.657,456.11C244.569,472.91 218.24,486.1 166.667,486.1L166.667,536.1C228.226,536.1 267.581,519.777 296.685,492.743C310.618,479.8 321.383,465.15 330.794,450.917C341.33,434.983 347.59,423.887 357.837,408.897C375.863,382.533 397.477,358.187 436.45,340.527C476.193,322.515 536.18,310.486 632.45,313.884L634.217,263.916ZM559.17,473.423L615.837,528.957L650.83,493.243L594.163,437.71L559.17,473.423ZM615.83,493.25L559.163,548.817L594.17,584.517L650.837,528.95L615.83,493.25ZM632.45,486.117C536.18,489.513 476.193,477.487 436.45,459.473C397.477,441.813 375.863,417.467 357.837,391.103C347.59,376.113 341.33,365.017 330.794,349.083C321.383,334.85 310.618,320.198 296.685,307.256C267.581,280.223 228.226,263.9 166.667,263.9L166.667,313.9C218.24,313.9 244.569,327.089 262.657,343.89C272.319,352.867 280.527,363.713 289.086,376.66C296.52,387.903 307.227,405.667 316.562,419.323C337.703,450.243 365.723,482.317 415.81,505.017C465.123,527.363 533.62,539.637 634.217,536.083L632.45,486.117Z" style="fill:white;fill-rule:nonzero;"/>
</svg>
