<?xml version="1.0" encoding="UTF-8" standalone="no"?>
<!DOCTYPE svg PUBLIC "-//W3C//DTD SVG 1.1//EN" "http://www.w3.org/Graphics/SVG/1.1/DTD/svg11.dtd">
<svg width="100%" height="100%" viewBox="0 0 800 800" version="1.1" xmlns="http://www.w3.org/2000/svg" xmlns:xlink="http://www.w3.org/1999/xlink" xml:space="preserve" xmlns:serif="http://www.serif.com/" style="fill-rule:evenodd;clip-rule:evenodd;stroke-linecap:round;stroke-linejoin:round;">
    <g transform="matrix(1,0,0,1,0,4)">
        <path d="M366.667,200L700,200.024M366.667,600L700,600.023M150,600L150.333,600M166.667,600C166.667,609.203 159.205,616.667 150,616.667C140.795,616.667 133.333,609.203 133.333,600C133.333,590.797 140.795,583.333 150,583.333C159.205,583.333 166.667,590.797 166.667,600Z" style="fill:white;fill-rule:nonzero;stroke:white;stroke-width:66.67px;"/>
    </g>
    <g transform="matrix(1,0,0,1,0,-396)">
        <path d="M366.667,200L700,200.024M366.667,600L700,600.023M150,600L150.333,600M166.667,600C166.667,609.203 159.205,616.667 150,616.667C140.795,616.667 133.333,609.203 133.333,600C133.333,590.797 140.795,583.333 150,583.333C159.205,583.333 166.667,590.797 166.667,600Z" style="fill:white;fill-rule:nonzero;stroke:white;stroke-width:66.67px;"/>
    </g>
</svg>
